<?xml version="1.0" encoding="utf-8"?>
<!-- Generator: Adobe Illustrator 25.1.0, SVG Export Plug-In . SVG Version: 6.00 Build 0)  -->
<svg version="1.1" id="Layer_1" xmlns="http://www.w3.org/2000/svg"
     x="0px" y="0px"
     width="117" height="40"
     viewBox="0 0 117 40" style="enable-background:new 0 0 117 40;"
     xml:space="preserve">
<style type="text/css">
	.st0{fill:#21125E;}
	.st1{fill-rule:evenodd;clip-rule:evenodd;fill:#51E9D2;}
</style>
    <g>
	<g>
		<path class="st0" d="M74.7,25.6c0.3,0.3,0.4,0.6,0.4,1c0,0.4-0.1,0.7-0.4,0.9c-0.3,0.3-0.6,0.4-1,0.4h-7.4c-0.4,0-0.7-0.1-1-0.4
			c-0.3-0.3-0.4-0.6-0.4-1V13.4c0-0.4,0.1-0.7,0.4-1c0.3-0.3,0.6-0.4,1-0.4c0.4,0,0.7,0.1,1,0.4c0.3,0.3,0.4,0.6,0.4,1v11.9h5.9
			C74.1,25.2,74.4,25.4,74.7,25.6z"/>
        <path class="st0" d="M88.3,15.9c0.3,0.3,0.4,0.6,0.4,1v9.6c0,0.4-0.1,0.7-0.4,1c-0.3,0.3-0.6,0.4-1,0.4c-0.4,0-0.7-0.1-1-0.4
			c-0.3-0.3-0.4-0.6-0.4-1c-0.4,0.4-0.9,0.8-1.5,1.1c-0.6,0.3-1.3,0.5-2,0.5c-1,0-2-0.3-2.8-0.8c-0.9-0.5-1.5-1.3-2-2.2
			c-0.5-1-0.7-2-0.7-3.3c0-1.2,0.2-2.3,0.7-3.3c0.5-1,1.1-1.7,2-2.3c0.8-0.5,1.8-0.8,2.8-0.8c0.7,0,1.4,0.1,2,0.4
			c0.6,0.3,1.2,0.6,1.6,1v0c0-0.4,0.1-0.7,0.4-1c0.3-0.3,0.6-0.4,1-0.4C87.7,15.5,88,15.6,88.3,15.9z M85.1,24.6
			c0.6-0.7,0.9-1.6,0.9-2.7s-0.3-2-0.9-2.7c-0.6-0.7-1.4-1.1-2.4-1.1c-1,0-1.8,0.4-2.4,1.1c-0.6,0.7-0.9,1.6-0.9,2.7s0.3,2,0.9,2.7
			c0.6,0.7,1.4,1.1,2.4,1.1C83.7,25.6,84.5,25.3,85.1,24.6z"/>
        <path class="st0" d="M101.4,16.9c0.6,0.9,0.9,2.2,0.9,3.8v5.8c0,0.4-0.1,0.7-0.4,1c-0.3,0.3-0.6,0.4-1,0.4c-0.4,0-0.7-0.1-1-0.4
			c-0.3-0.3-0.4-0.6-0.4-1v-5.8c0-0.8-0.2-1.5-0.5-2c-0.3-0.5-0.9-0.7-1.8-0.7c-0.9,0-1.6,0.3-2.1,0.8c-0.5,0.5-0.8,1.2-0.8,1.9v5.8
			c0,0.4-0.1,0.7-0.4,1c-0.3,0.3-0.6,0.4-1,0.4c-0.4,0-0.7-0.1-1-0.4c-0.3-0.3-0.4-0.6-0.4-1v-9.4c0-0.4,0.1-0.7,0.4-1
			c0.3-0.3,0.6-0.4,1-0.4c0.4,0,0.7,0.1,1,0.4c0.3,0.3,0.4,0.6,0.4,1v0.4c0.4-0.5,0.9-1,1.6-1.4c0.7-0.4,1.4-0.6,2.2-0.6
			C99.7,15.5,100.8,16,101.4,16.9z"/>
        <path class="st0" d="M116.1,11.4c0.3,0.3,0.4,0.6,0.4,1v14.1c0,0.4-0.1,0.7-0.4,1c-0.3,0.3-0.6,0.4-1,0.4c-0.4,0-0.7-0.1-1-0.4
			c-0.3-0.3-0.4-0.6-0.4-1c-0.4,0.4-0.9,0.8-1.5,1.1c-0.6,0.3-1.3,0.5-2,0.5c-1,0-2-0.3-2.8-0.8c-0.9-0.5-1.5-1.3-2-2.2
			c-0.5-1-0.7-2-0.7-3.3c0-1.2,0.2-2.3,0.7-3.3c0.5-1,1.2-1.7,2-2.3c0.8-0.5,1.8-0.8,2.8-0.8c0.7,0,1.4,0.1,2,0.4
			c0.6,0.3,1.2,0.6,1.6,1v-4.5c0-0.4,0.1-0.7,0.4-1c0.3-0.3,0.6-0.4,1-0.4C115.5,11.1,115.8,11.2,116.1,11.4z M112.9,24.6
			c0.6-0.7,0.9-1.6,0.9-2.7s-0.3-2-0.9-2.7c-0.6-0.7-1.4-1.1-2.4-1.1c-1,0-1.8,0.4-2.4,1.1c-0.6,0.7-0.9,1.6-0.9,2.7s0.3,2,0.9,2.7
			c0.6,0.7,1.4,1.1,2.4,1.1C111.5,25.6,112.3,25.3,112.9,24.6z"/>
	</g>
        <g>
		<path class="st0" d="M23.4,27.5c-0.3,0.3-0.6,0.4-1,0.4c-0.4,0-0.7-0.1-1-0.4c-0.3-0.3-0.4-0.6-0.4-1V12.5c0-0.4,0.1-0.7,0.4-1
			c0.3-0.3,0.6-0.4,1-0.4c0.4,0,0.7,0.1,1,0.4c0.3,0.3,0.4,0.6,0.4,1v14.1C23.8,26.9,23.7,27.2,23.4,27.5z"/>
            <path class="st0" d="M27.1,14c-0.2-0.2-0.3-0.5-0.3-0.9v-0.4c0-0.4,0.1-0.7,0.3-0.9c0.2-0.2,0.6-0.3,1.1-0.3
			c0.5,0,0.9,0.1,1.1,0.3c0.2,0.2,0.3,0.5,0.3,0.9v0.4c0,0.4-0.1,0.7-0.3,0.9c-0.2,0.2-0.6,0.2-1.1,0.2C27.7,14.2,27.3,14.2,27.1,14
			z M29.2,27.5c-0.3,0.3-0.6,0.4-1,0.4c-0.4,0-0.7-0.1-1-0.4c-0.3-0.3-0.4-0.6-0.4-1v-9.4c0-0.4,0.1-0.7,0.4-1
			c0.3-0.3,0.6-0.4,1-0.4c0.4,0,0.7,0.1,1,0.4c0.3,0.3,0.4,0.6,0.4,1v9.4C29.6,26.9,29.5,27.2,29.2,27.5z"/>
            <path class="st0" d="M42.7,16.1c0.2,0.2,0.4,0.5,0.4,0.9c0,0.2-0.1,0.4-0.2,0.7L38.6,27c-0.1,0.3-0.3,0.5-0.5,0.6
			c-0.2,0.2-0.4,0.2-0.7,0.3l-0.2,0c-0.3,0-0.5-0.1-0.7-0.2c-0.2-0.2-0.4-0.4-0.5-0.6l-4.2-9.4c-0.1-0.2-0.2-0.5-0.2-0.7
			c0-0.3,0.1-0.6,0.4-0.8c0.3-0.3,0.6-0.4,1-0.4c0.3,0,0.6,0.1,0.8,0.2c0.2,0.2,0.4,0.4,0.5,0.6l3.1,7.2l3.1-7.2
			c0.1-0.3,0.3-0.5,0.5-0.7c0.2-0.2,0.4-0.2,0.7-0.2C42.1,15.8,42.4,15.9,42.7,16.1z"/>
            <path class="st0" d="M55.7,22.4c-0.3,0.2-0.6,0.3-1,0.3h-7.5c0.2,0.9,0.6,1.6,1.3,2.1c0.7,0.5,1.4,0.8,2.2,0.8
			c0.6,0,1.1-0.1,1.5-0.2c0.3-0.1,0.6-0.2,0.8-0.4c0.2-0.1,0.3-0.2,0.4-0.3c0.3-0.1,0.5-0.2,0.8-0.2c0.3,0,0.6,0.1,0.8,0.3
			c0.2,0.2,0.3,0.5,0.3,0.8c0,0.4-0.2,0.8-0.6,1.1c-0.4,0.3-1,0.6-1.7,0.9c-0.7,0.2-1.4,0.4-2.2,0.4c-1.3,0-2.4-0.3-3.3-0.8
			c-0.9-0.5-1.7-1.3-2.2-2.2c-0.5-0.9-0.8-2-0.8-3.2c0-1.3,0.3-2.5,0.8-3.4c0.5-1,1.3-1.7,2.2-2.3c0.9-0.5,1.9-0.8,2.9-0.8
			c1,0,1.9,0.3,2.8,0.8c0.9,0.5,1.6,1.3,2.1,2.2c0.5,0.9,0.8,1.9,0.8,3C56.1,21.9,56,22.2,55.7,22.4z M47.2,20.5h6v-0.2
			c-0.1-0.6-0.4-1.2-0.9-1.6c-0.6-0.5-1.2-0.7-1.9-0.7C48.6,18,47.6,18.8,47.2,20.5z"/>
	</g>
        <path class="st1" d="M17.2,20.6c-0.3,0-0.4,0.3-0.5,0.5c-0.2,0.2-0.3,0.4-0.5,0.6c-0.1,0.1-0.2,0.2-0.2,0.3
		c-0.2,0.2-0.3,0.5-0.5,0.7c0,0.1-0.1,0.1-0.1,0.2c-0.2,0.2-0.4,0.4-0.6,0.7c-0.2,0.3-0.5,0.5-0.7,0.8c-0.2,0.2-0.5,0.4-0.7,0.6
		c-0.3,0.2-0.5,0.5-0.8,0.7c-0.2,0.2-0.3,0.3-0.6,0.4c0-0.1,0.1-0.2,0.1-0.2c0.2-0.2,0.4-0.4,0.6-0.6c0.1-0.1,0.2-0.2,0.3-0.3
		c0.1-0.1,0.1-0.1,0.2-0.2c0,0,0.1,0,0.1-0.1c0.1-0.2,0.3-0.3,0.4-0.5c0.1-0.1,0.2-0.3,0.3-0.4c0.2-0.2,0.4-0.4,0.6-0.6
		c0.1-0.1,0.2-0.2,0.3-0.3c0.3-0.3,0.5-0.6,0.7-0.9c0.2-0.2,0.4-0.5,0.5-0.8c0.1-0.2,0.2-0.3,0.3-0.5c0,0,0-0.1,0.1-0.1
		c0.1-0.1,0.3-0.2,0.4-0.3c0.1-0.1,0.2-0.3,0.4-0.4C17.4,20,17.3,20.3,17.2,20.6z M16.2,23.6c-0.1,0.1-0.1,0.2-0.2,0.2
		c-0.1,0.1-0.2,0.1-0.2,0.2c-0.2,0.2-0.4,0.4-0.5,0.6c-0.2,0.2-0.4,0.4-0.6,0.6c0,0.1-0.1,0.1-0.2,0.2c-0.2,0.2-0.5,0.4-0.7,0.5
		c-0.1,0.1-0.2,0.1-0.3,0.2c-0.1,0.1-0.2,0.2-0.3,0.2c-0.1,0.1-0.2,0.1-0.3,0.2c-0.1,0.1-0.2,0.1-0.3,0.2c-0.1,0.1-0.2,0.1-0.3,0.2
		c0,0,0,0,0,0c0-0.1,0.1-0.1,0.1-0.2c0.1-0.1,0.3-0.2,0.4-0.3c0.2-0.1,0.3-0.3,0.4-0.4c0.1-0.1,0.2-0.1,0.2-0.2
		c0.1-0.1,0.3-0.2,0.4-0.3c0.2-0.2,0.4-0.4,0.7-0.6c0.3-0.2,0.5-0.4,0.7-0.6c0.2-0.2,0.4-0.4,0.7-0.7c0.1-0.1,0.2-0.2,0.3-0.3
		c0.1-0.1,0.1-0.1,0.2-0.2c0,0.1,0.1,0.2,0.1,0.2C16.3,23.4,16.3,23.5,16.2,23.6z M12,24.6C12,24.6,12,24.6,12,24.6
		c0.2-0.3,0.5-0.6,0.7-0.8c0.2-0.2,0.3-0.4,0.5-0.5c0.6-0.6,1-1.2,1.5-1.8c0.2-0.3,0.4-0.6,0.7-0.8c0.2-0.2,0.4-0.3,0.5-0.5
		c0.2-0.1,0.2-0.3,0.3-0.4c0.1-0.1,0.2-0.2,0.3-0.3c0,0.2-0.1,0.3-0.2,0.5c-0.1,0.2-0.3,0.4-0.5,0.6c-0.1,0.1-0.1,0.2-0.2,0.3
		c-0.3,0.3-0.5,0.6-0.8,0.9c0,0,0,0.1,0,0.1c-0.1,0.1-0.1,0.2-0.3,0.3c-0.1,0.1-0.2,0.2-0.3,0.4c-0.1,0.2-0.3,0.4-0.4,0.6
		c-0.2,0.2-0.4,0.3-0.6,0.5c-0.2,0.2-0.3,0.4-0.5,0.6c-0.1,0.1-0.2,0.3-0.4,0.4c0,0-0.1,0.1-0.1,0.1C12.1,24.5,12,24.6,12,24.6
		C12,24.6,12,24.6,12,24.6z M11,27.5c-0.1,0-0.1,0-0.2,0c0.1-0.1,0.1-0.2,0.2-0.3c0.1-0.1,0.1-0.1,0.2-0.2c0.1-0.1,0.1-0.1,0.2-0.2
		c0.1,0.2,0.1,0.3,0.2,0.5C11.4,27.4,11.2,27.5,11,27.5z M9.7,26.4c-0.2,0.2-0.4,0.4-0.6,0.6c-0.1,0.1-0.3,0.2-0.4,0.4
		c-0.1,0.1-0.3,0.1-0.5,0.1c0-0.1,0-0.1,0-0.1c0.1-0.2,0.3-0.4,0.4-0.6c0.2-0.3,0.5-0.6,0.7-0.9c0.2-0.4,0.5-0.6,0.8-1
		c0.1-0.2,0.2-0.3,0.4-0.4c0.3-0.4,0.7-0.7,1-1.1c0.1-0.2,0.3-0.4,0.4-0.5c0,0,0.1-0.1,0.1-0.1c0.3-0.3,0.6-0.6,0.8-0.9
		c0.2-0.3,0.4-0.5,0.6-0.7c0.2-0.2,0.4-0.5,0.6-0.7c0.1-0.1,0.2-0.3,0.3-0.5c0.1-0.1,0.1-0.2,0.2-0.3c0.2-0.3,0.4-0.6,0.7-0.8
		c0.1-0.1,0.2-0.3,0.3-0.4c0.2-0.3,0.5-0.6,0.7-0.8c0.2-0.1,0.3-0.3,0.4-0.5c0.1-0.2,0.2-0.1,0.3,0c0,0.1,0.1,0.2,0.1,0.3
		c-0.2,0.1-0.4,0.2-0.6,0.4c-0.1,0.1-0.2,0.2-0.3,0.4c-0.2,0.4-0.5,0.7-0.7,1.1c-0.2,0.2-0.4,0.5-0.6,0.8c-0.2,0.3-0.5,0.5-0.7,0.8
		c-0.2,0.3-0.4,0.6-0.7,1c-0.4,0.4-0.7,0.9-1.1,1.3c-0.5,0.6-1,1.1-1.5,1.7c-0.3,0.3-0.5,0.7-0.7,1C10.2,25.9,9.9,26.1,9.7,26.4z
		 M9.3,27.8C9.3,27.8,9.3,27.8,9.3,27.8c-0.1-0.1-0.1-0.1,0-0.1C9.4,27.7,9.4,27.7,9.3,27.8z M7.9,26.3C7.9,26.3,7.9,26.2,7.9,26.3
		c0-0.1,0-0.2,0.1-0.2c0.1-0.1,0.2-0.3,0.3-0.4c0.1-0.1,0.2-0.3,0.3-0.4c0.2-0.3,0.5-0.6,0.7-0.9c0.2-0.3,0.4-0.6,0.6-0.8
		c0.1-0.1,0.1-0.2,0.2-0.2c0.2-0.2,0.5-0.4,0.7-0.7c0.3-0.3,0.5-0.6,0.7-0.9c0.1-0.2,0.2-0.3,0.3-0.5c0.2-0.2,0.3-0.5,0.5-0.7
		c0.1-0.2,0.3-0.4,0.5-0.6c0.1-0.1,0.2-0.3,0.3-0.4c0.1-0.2,0.3-0.4,0.5-0.5c0.2-0.2,0.3-0.4,0.5-0.5c0.2-0.2,0.4-0.5,0.6-0.7
		c0.1-0.1,0.2-0.2,0.4-0.3c0.1-0.1,0.2-0.2,0.2-0.3c0-0.2,0-0.5-0.2-0.7c0.1-0.1,0.1-0.2,0.2-0.3c0-0.1,0.1-0.1,0.2-0.1
		c0.3,0,0.5-0.2,0.6-0.5c0,0,0-0.1,0.1-0.1c0,0,0,0,0,0c0.2,0.2,0.3,0.4,0.4,0.6c-0.1,0.2-0.2,0.3-0.3,0.3c-0.1,0.1-0.2,0.2-0.3,0.4
		c-0.2,0.3-0.5,0.6-0.7,0.8c-0.1,0.1-0.2,0.3-0.3,0.4c-0.3,0.2-0.4,0.5-0.5,0.8c-0.4,0.7-0.9,1.4-1.4,2c-0.3,0.4-0.6,0.8-0.9,1.1
		c-0.3,0.3-0.5,0.6-0.8,0.9c-0.2,0.3-0.5,0.6-0.7,0.9c-0.3,0.3-0.6,0.6-0.9,1c-0.1,0.1-0.2,0.3-0.3,0.4c-0.2,0.2-0.3,0.3-0.5,0.5
		c-0.1,0.1-0.3,0.3-0.4,0.5C8.2,26.1,8,26.2,7.9,26.3z M6.9,24.8c-0.2,0.2-0.3,0.3-0.4,0.6c0,0.1-0.1,0.2-0.2,0.3
		C6.3,25.9,6.1,26,5.9,26c-0.3,0.1-0.5,0.4-0.6,0.6c0,0.1,0,0.2,0,0.2c-0.1,0-0.1,0-0.2,0.1c0-0.1-0.1-0.1,0-0.2
		c0.1-0.1,0.1-0.3,0.2-0.4c0.2-0.2,0.4-0.4,0.6-0.6C6,25.7,6,25.6,6.1,25.5c0.2-0.3,0.4-0.6,0.7-0.9c0.2-0.2,0.3-0.4,0.5-0.7
		c0.2-0.2,0.3-0.4,0.5-0.6C7.9,23.2,8,23,8.2,22.9c0.2-0.1,0.4-0.3,0.6-0.4C9,22.3,9.3,22,9.5,21.6c0,0,0.1-0.1,0.1-0.1
		c0.2-0.2,0.3-0.5,0.5-0.8c0.2-0.3,0.3-0.6,0.6-0.8c0.2-0.2,0.4-0.5,0.6-0.7c0,0,0-0.1,0.1-0.1c0.1-0.2,0.3-0.4,0.4-0.6
		c0.1-0.1,0.2-0.3,0.4-0.5c0.2-0.3,0.5-0.6,0.7-0.9c0.2-0.3,0.5-0.5,0.7-0.8c0.3-0.3,0.6-0.6,1-0.9c0,0,0,0,0.1,0c0,0,0.1,0,0.1,0
		c0.1,0.1,0,0.1,0,0.2c-0.1,0.2-0.2,0.3-0.4,0.5c-0.3,0.3-0.7,0.7-1,1c-0.3,0.3-0.5,0.6-0.7,0.9c-0.4,0.6-0.7,1.1-1.2,1.7
		c-0.2,0.3-0.5,0.6-0.7,0.9c-0.2,0.3-0.4,0.5-0.6,0.8c-0.2,0.3-0.4,0.6-0.6,0.8c-0.2,0.3-0.5,0.5-0.7,0.8c-0.3,0.3-0.6,0.7-0.9,1
		C7.5,24.1,7.3,24.5,6.9,24.8z M6.7,27.7c0-0.2,0-0.2,0.2-0.4c0,0.1,0,0.3,0,0.5C6.9,27.8,6.8,27.7,6.7,27.7z M4.4,26.3
		c-0.2,0.1-0.2,0.1-0.3,0c0,0,0,0,0,0c0-0.1,0.1-0.1,0.2-0.1c0.2,0,0.3-0.1,0.3-0.3c0.1-0.2,0.2-0.3,0.3-0.5C4.9,25.3,5,25.2,5,25.1
		c0.3-0.5,0.6-0.9,0.9-1.3c0.3-0.4,0.6-0.7,0.9-1.1c0.3-0.4,0.7-0.8,1-1.2c0.2-0.2,0.4-0.4,0.6-0.5c0,0.1-0.1,0.2-0.2,0.4
		c-0.2,0.3-0.5,0.7-0.7,1c-0.6,0.8-1.1,1.6-1.7,2.4c-0.3,0.3-0.5,0.7-0.8,0.9C4.8,25.8,4.6,26.1,4.4,26.3z M3.4,24.5
		c-0.1,0-0.1-0.1-0.1-0.2c0-0.1,0.1-0.2,0.1-0.2c0.2-0.2,0.4-0.5,0.5-0.8c0.2-0.4,0.4-0.8,0.6-1.2c0.1-0.2,0.3-0.4,0.5-0.6
		c0.3-0.3,0.5-0.7,0.8-1c0,0,0.1-0.1,0.1-0.1c0,0,0,0,0,0c0,0,0,0.1,0,0.1c-0.5,0.8-1,1.6-1.4,2.4c-0.2,0.4-0.5,0.7-0.7,1.1
		C3.8,24.3,3.7,24.4,3.4,24.5z M2.6,22.7c-0.1,0-0.1,0.1-0.2,0.1c-0.1-0.2-0.2-0.4-0.2-0.6c0-0.1,0.1-0.1,0.1-0.2
		c0.1-0.2,0.3-0.4,0.4-0.6c0.2-0.2,0.4-0.5,0.6-0.7c0.1,0,0.1-0.1,0.1-0.1c0.2-0.3,0.3-0.6,0.5-0.9c0.1-0.2,0.3-0.5,0.4-0.7
		c0.2-0.2,0.3-0.5,0.4-0.7c0.1-0.3,0.3-0.6,0.5-0.8c0.3-0.5,0.7-1,1-1.4c0.3-0.3,0.5-0.7,0.7-1.1c0.2-0.3,0.4-0.7,0.7-1
		c0.1-0.2,0.2-0.3,0.4-0.3c0.1-0.2,0.2-0.4,0.3-0.5C8.5,13.1,8.6,13,8.8,13c0,0,0.1,0,0.1-0.1C9,12.7,9,12.5,9,12.3c0,0,0-0.1,0-0.1
		C9,12,9.2,12,9.3,12c0.3,0,0.7,0,1,0c0,0.3-0.1,0.7,0.3,0.9c-0.1,0.1-0.2,0.2-0.3,0.3c0-0.2,0-0.3-0.1-0.4c0-0.1-0.1-0.2-0.2-0.3
		c-0.1-0.1-0.3-0.1-0.4,0.1c-0.1,0.2-0.3,0.5-0.4,0.7c-0.4,0.7-1,1.3-1.5,1.8c-0.6,0.7-1.2,1.4-1.6,2.2c-0.2,0.5-0.5,1-0.8,1.4
		C5.2,19,5,19.3,4.8,19.6C4.5,20,4.3,20.5,4,20.9C3.6,21.6,3.2,22.2,2.6,22.7z M3.1,16.3c0.1,0,0.1-0.1,0.2-0.2
		c0,0.1-0.2,0.4-0.3,0.5C2.9,16.5,2.9,16.4,3.1,16.3z M3.7,17.2c-0.2,0.5-0.4,0.9-0.7,1.3c0-0.2,0-0.4,0.1-0.5
		c0.1-0.1,0.2-0.2,0.2-0.3C3.5,17.5,3.6,17.4,3.7,17.2z M4.7,15.3C4.7,15.3,4.7,15.2,4.7,15.3c0.2-0.4,0.4-0.6,0.7-0.8
		c0.1-0.1,0.1-0.2,0.2-0.3c0.1-0.2,0-0.3-0.2-0.4c0,0,0-0.1,0.1-0.1c0.2-0.1,0.4-0.3,0.5-0.4c0.2-0.2,0.4-0.3,0.6-0.4
		c0.4-0.2,0.8-0.3,1.1-0.5c0,0,0.1,0,0.1-0.1c-0.1,0.2-0.2,0.3-0.3,0.5c-0.1,0.2-0.2,0.3-0.3,0.5c-0.1,0.2-0.2,0.3-0.4,0.5
		c-0.1-0.1-0.1-0.1-0.2-0.1c0,0-0.1-0.1-0.1-0.1c-0.2-0.2-0.3-0.1-0.4,0.1c-0.1,0.2-0.2,0.4-0.3,0.5c-0.5,0.6-1,1.3-1.4,1.9
		c0,0-0.1,0.1-0.1,0.1C4.3,15.9,4.4,15.6,4.7,15.3z M9.6,14c0.2-0.3,0.4-0.6,0.6-0.8c0,0,0,0,0,0C10.1,13.6,9.8,13.8,9.6,14
		C9.6,14.1,9.6,14,9.6,14z M11.8,12.8c0,0,0-0.1,0-0.1c0-0.1-0.1-0.2-0.2-0.3c-0.1-0.1-0.2-0.1-0.3,0c-0.1,0-0.2,0.1-0.2,0.1
		c0-0.1-0.1-0.2-0.1-0.4c0.2,0,0.3,0,0.4,0.1c0,0,0.1,0,0.2,0c0.2,0,0.5,0,0.7,0.2c0.1,0.1,0.2,0.2,0.4,0.3c0,0.2-0.1,0.2-0.2,0.3
		c-0.6,0.6-1.1,1.1-1.7,1.7c-0.2,0.2-0.3,0.4-0.5,0.6c-0.4,0.5-0.8,0.9-1.1,1.4c-0.3,0.3-0.5,0.6-0.8,0.9c-0.4,0.5-0.8,0.9-1.2,1.4
		c0.3-0.6,0.7-1.3,1.1-1.8c0.4-0.5,0.7-0.9,1-1.4c0.4-0.5,0.8-0.9,1.2-1.4c0.2-0.2,0.4-0.4,0.5-0.6c0.2-0.3,0.5-0.4,0.9-0.5
		C11.8,13.2,11.9,13,11.8,12.8z M12.6,13.8c0,0,0.1,0,0.1,0c0.1,0,0.1,0.1,0.1,0.2c0,0.1-0.1,0.1-0.1,0.2c-0.3,0.4-0.6,0.8-0.9,1.3
		c-0.3,0.4-0.5,0.8-0.8,1.1c-0.5,0.7-1,1.3-1.6,1.9c-0.4,0.3-0.7,0.7-1,1.1C8.3,19.8,8.2,20,8,20.1c-0.4,0.4-0.7,0.8-1.1,1.3
		c-0.4,0.4-0.7,0.9-1.1,1.3c-0.2,0.3-0.4,0.5-0.6,0.7c0.1-0.1,0.1-0.3,0.2-0.4c0.1-0.2,0.3-0.5,0.4-0.7c0.3-0.6,0.7-1.1,1.1-1.7
		c0.4-0.5,0.8-1.1,1.2-1.6c0.7-0.7,1.3-1.5,1.9-2.3c0.3-0.4,0.6-0.9,1-1.3c0.2-0.2,0.4-0.4,0.6-0.6c0.1-0.1,0.2-0.3,0.3-0.4
		c0.2-0.2,0.3-0.3,0.5-0.4C12.5,14,12.5,13.9,12.6,13.8z M13.7,14.3c0-0.1,0.1-0.2,0.1-0.4c0.2,0.1,0.2,0.4,0,0.5
		C13.8,14.4,13.7,14.4,13.7,14.3C13.7,14.4,13.7,14.4,13.7,14.3z M15,14.1c0.1,0.1,0.1,0.1,0.2,0.2c0.1,0.1,0,0.1,0,0.2
		c-0.1,0-0.1,0-0.1-0.1C15,14.3,15,14.3,15,14.1C15,14.2,15,14.2,15,14.1z M18.8,19C18.8,19,18.8,19,18.8,19c0-0.1,0-0.2,0-0.3
		c-0.1-0.4-0.1-0.8-0.3-1.2c-0.2-0.6-0.3-1.2-0.7-1.7c-0.2-0.3-0.4-0.7-0.7-1c-0.1-0.1-0.2-0.2-0.3-0.3c-0.1-0.1-0.1-0.2-0.2-0.3
		c-0.2-0.2-0.4-0.4-0.6-0.6c-0.1-0.1-0.3-0.2-0.4-0.4c-0.2-0.2-0.4-0.3-0.6-0.4c-0.1,0-0.1-0.1-0.2-0.1c-0.1-0.2-0.3-0.3-0.5-0.4
		c-0.3-0.2-0.6-0.3-0.9-0.6c-0.3-0.2-0.6-0.3-0.9-0.5c-0.1-0.1-0.3-0.1-0.5-0.1c-0.4-0.1-0.7-0.2-1.1-0.2c0,0-0.1,0-0.1,0
		c-0.2,0-0.3-0.1-0.5-0.1c-0.3,0-0.6,0-0.8,0c-0.1,0-0.3,0-0.4,0.1c-0.4,0.2-0.9,0.3-1.3,0.4c-0.2,0.1-0.4,0.1-0.7,0.2
		c-0.2,0.1-0.5,0.3-0.7,0.4c-0.1,0-0.2,0.1-0.3,0.1c-0.2,0.1-0.5,0.3-0.7,0.4c-0.2,0.1-0.4,0.3-0.6,0.5c-0.2,0.2-0.4,0.4-0.6,0.6
		C4,13.7,3.8,13.9,3.6,14c-0.2,0.1-0.3,0.3-0.5,0.4c-0.3,0.1-0.4,0.4-0.6,0.5c-0.2,0.1-0.3,0.3-0.4,0.5c-0.1,0.1-0.2,0.3-0.3,0.5
		c0,0.1-0.1,0.2-0.1,0.3c-0.2,0.3-0.4,0.6-0.4,1c0,0,0,0.1,0,0.1c-0.1,0.1-0.1,0.2-0.1,0.3c0,0.1-0.1,0.3-0.1,0.4
		c-0.1,0.3-0.2,0.6-0.2,1c0,0.2,0,0.3-0.1,0.5c-0.1,0.4-0.2,0.7-0.2,1.1c0,0.2,0,0.5,0,0.7c0,0.1,0,0.3,0,0.4c0,0.2,0,0.3,0,0.5
		c0.1,0.3,0.1,0.7,0.2,1c0,0,0,0.1,0,0.1c0,0.2,0,0.4,0.1,0.5c0.1,0.2,0.1,0.4,0.3,0.6c0,0,0,0.1,0,0.1c0,0.1,0,0.1,0.1,0.2
		c0,0,0.1,0.1,0.1,0.1c0,0.1,0.1,0.2,0.2,0.3c0.2,0.2,0.3,0.4,0.4,0.6C2,25.8,2.1,26,2.2,26.1c0.1,0.1,0.2,0.3,0.2,0.4
		c0.1,0.2,0.2,0.3,0.2,0.5c0,0.1,0.1,0.1,0.2,0.1c0,0,0.1,0,0.1,0.1c0.2,0.2,0.4,0.4,0.7,0.6c0,0,0.1,0.1,0.1,0.1
		C4,28,4.3,28.1,4.5,28.2c0.1,0,0.2,0,0.2,0.1c0.4,0.2,0.9,0.4,1.3,0.5c0.2,0,0.4,0.1,0.6,0.1c0.3,0,0.7,0,1,0.1
		c0.4,0.1,0.8,0.2,1.2,0.1c0.3,0,0.5-0.1,0.8-0.1c0.2,0,0.3,0,0.5-0.1c0.3-0.1,0.5-0.2,0.8-0.2c0.1,0,0.2-0.1,0.3,0c0,0,0.1,0,0.1,0
		c0.3-0.1,0.6-0.2,0.9-0.4c0,0,0.1-0.1,0.1-0.1c0.4-0.1,0.7-0.3,1-0.5c0.3-0.2,0.5-0.4,0.7-0.5c0.3-0.2,0.5-0.4,0.8-0.5c0,0,0,0,0,0
		c0.1-0.1,0.2-0.2,0.4-0.3c0.3-0.1,0.4-0.4,0.6-0.6c0.1-0.1,0.1-0.2,0.2-0.3c0.2-0.2,0.4-0.4,0.6-0.7c0.1-0.2,0.3-0.3,0.5-0.4
		c0.1-0.1,0.2-0.2,0.2-0.3c0.1-0.3,0.2-0.5,0.3-0.8c0.1-0.2,0.2-0.4,0.3-0.6c0.2-0.2,0.3-0.4,0.4-0.6c0-0.1,0.1-0.1,0.1-0.2
		c0.1-0.2,0.2-0.4,0.2-0.6c0-0.1,0-0.2,0-0.4c0-0.3,0.1-0.5,0.1-0.8C18.8,19.7,18.8,19.3,18.8,19z"/>
</g>
</svg>
