<?xml version="1.0" encoding="utf-8"?>
<!-- Generator: Adobe Illustrator 25.1.0, SVG Export Plug-In . SVG Version: 6.00 Build 0)  -->
<svg version="1.1" id="Layer_1" xmlns="http://www.w3.org/2000/svg"
	 x="0px" y="0px"
     viewBox="0 0 40 36" style="enable-background:new 0 0 40 36;"
     xml:space="preserve">
<style type="text/css">
	.st0{fill:#21125E;}
	.st1{fill-rule:evenodd;clip-rule:evenodd;fill:#51E9D2;}
</style>
    <g>
	<g>
		<path class="st0" d="M35.9,26.8c-1.4,2.7-3.4,4.9-6,6.4c-2.5,1.6-5.4,2.4-8.6,2.4c-3.2,0-6.1-0.8-8.6-2.4c-2.5-1.6-4.5-3.7-6-6.4
			s-2.1-5.7-2.1-8.9S5.3,11.7,6.8,9s3.4-4.9,6-6.4c2.5-1.6,5.4-2.4,8.6-2.4c3.2,0,6.1,0.8,8.6,2.4c2.5,1.6,4.5,3.7,6,6.4
			c1.4,2.7,2.2,5.7,2.2,8.9S37.4,24.1,35.9,26.8z M30.3,11.9c-0.9-1.8-2.1-3.2-3.7-4.3c-1.6-1.1-3.4-1.6-5.3-1.6
			c-2,0-3.8,0.5-5.3,1.6c-1.6,1-2.8,2.5-3.6,4.3c-0.9,1.8-1.3,3.8-1.3,6c0,2.2,0.4,4.2,1.3,6c0.9,1.8,2.1,3.2,3.6,4.3
			c1.6,1,3.3,1.6,5.3,1.6c2,0,3.7-0.5,5.3-1.6c1.6-1.1,2.8-2.5,3.7-4.3c0.9-1.8,1.3-3.8,1.3-6C31.7,15.7,31.2,13.7,30.3,11.9z"/>
	</g>
        <path class="st1" d="M33.7,19.7c-0.5,0-0.7,0.5-1,0.9c-0.4,0.4-0.6,0.8-1,1.2c-0.1,0.2-0.3,0.3-0.5,0.5c-0.3,0.4-0.6,0.9-0.9,1.3
		c-0.1,0.1-0.2,0.2-0.3,0.3c-0.4,0.4-0.8,0.9-1.1,1.3c-0.4,0.6-0.9,1-1.4,1.4c-0.4,0.4-0.9,0.7-1.3,1.1c-0.5,0.5-1,0.9-1.4,1.4
		c-0.3,0.3-0.6,0.6-1.1,0.8c0.1-0.2,0.1-0.3,0.3-0.5c0.4-0.4,0.8-0.8,1.2-1.2c0.2-0.2,0.4-0.4,0.6-0.6c0.1-0.1,0.3-0.2,0.4-0.3
		c0,0,0.1-0.1,0.1-0.2c0.2-0.4,0.5-0.6,0.8-0.9c0.2-0.2,0.4-0.5,0.6-0.7c0.3-0.4,0.7-0.8,1.1-1.1c0.2-0.2,0.4-0.4,0.6-0.7
		c0.5-0.6,1-1.2,1.4-1.8c0.4-0.5,0.7-1,1-1.5c0.2-0.3,0.4-0.7,0.7-1c0-0.1,0.1-0.1,0.1-0.2c0.3-0.2,0.5-0.4,0.8-0.7
		c0.2-0.3,0.4-0.5,0.7-0.7C34.1,18.5,33.9,19.1,33.7,19.7z M31.8,25.3c-0.1,0.1-0.2,0.3-0.4,0.4c-0.1,0.1-0.3,0.2-0.4,0.4
		c-0.3,0.4-0.7,0.7-1,1.1c-0.3,0.4-0.8,0.7-1.1,1.2c-0.1,0.1-0.2,0.2-0.3,0.3c-0.4,0.4-0.9,0.7-1.3,1c-0.2,0.1-0.4,0.2-0.6,0.3
		c-0.2,0.1-0.4,0.3-0.6,0.5c-0.2,0.1-0.3,0.2-0.5,0.3c-0.2,0.1-0.4,0.2-0.6,0.4c-0.2,0.2-0.4,0.2-0.7,0.4c0,0-0.1-0.1-0.1-0.1
		c0.1-0.1,0.1-0.2,0.2-0.3c0.2-0.2,0.5-0.4,0.7-0.6c0.3-0.3,0.6-0.6,0.9-0.8c0.1-0.1,0.3-0.3,0.5-0.4c0.2-0.2,0.5-0.4,0.7-0.6
		c0.4-0.4,0.8-0.8,1.3-1.1c0.5-0.3,0.9-0.7,1.3-1.1c0.4-0.5,0.8-0.8,1.3-1.3c0.2-0.2,0.4-0.4,0.6-0.6c0.1-0.1,0.2-0.2,0.4-0.3
		c0.1,0.2,0.1,0.3,0.2,0.4C32,25,31.9,25.1,31.8,25.3z M23.7,27.3c0,0,0-0.1,0-0.1c0.4-0.5,0.9-1,1.3-1.5c0.3-0.3,0.6-0.7,0.9-1
		c1.1-1.1,1.9-2.4,2.9-3.5c0.5-0.5,0.8-1.1,1.4-1.6c0.3-0.3,0.7-0.6,0.9-1c0.3-0.2,0.4-0.6,0.6-0.8c0.2-0.2,0.4-0.4,0.6-0.6
		c0,0.4-0.2,0.6-0.4,0.9c-0.3,0.4-0.6,0.7-0.9,1.1c-0.1,0.2-0.3,0.3-0.4,0.5c-0.5,0.6-1,1.1-1.4,1.7c0,0-0.1,0.1-0.1,0.2
		c-0.1,0.2-0.2,0.5-0.5,0.6c-0.3,0.2-0.4,0.5-0.6,0.7c-0.3,0.4-0.5,0.7-0.8,1.1c-0.3,0.4-0.7,0.6-1.1,1c-0.3,0.4-0.6,0.8-0.9,1.1
		c-0.2,0.3-0.4,0.6-0.8,0.8c-0.1,0-0.1,0.2-0.2,0.2C23.9,27.1,23.8,27.2,23.7,27.3C23.7,27.3,23.7,27.3,23.7,27.3z M21.9,32.9
		c-0.1,0-0.3,0-0.5,0c0.1-0.2,0.2-0.5,0.4-0.6c0.2-0.1,0.2-0.3,0.4-0.4c0.1-0.1,0.2-0.2,0.4-0.4c0.1,0.4,0.2,0.7,0.3,1
		C22.5,32.6,22.2,32.7,21.9,32.9z M19.4,30.6c-0.4,0.4-0.8,0.7-1.2,1.1c-0.2,0.2-0.5,0.5-0.7,0.7c-0.3,0.2-0.6,0.2-1,0.2
		c0-0.1,0-0.2,0.1-0.2c0.3-0.4,0.5-0.7,0.8-1.1c0.4-0.6,1-1.2,1.4-1.8c0.4-0.7,1-1.2,1.4-1.9c0.2-0.3,0.5-0.5,0.7-0.8
		c0.6-0.7,1.3-1.4,1.9-2.1c0.3-0.3,0.5-0.7,0.8-1c0.1-0.1,0.2-0.2,0.2-0.2c0.6-0.5,1.2-1.1,1.6-1.8c0.3-0.5,0.8-0.9,1.1-1.4
		c0.4-0.5,0.8-0.9,1.2-1.4c0.2-0.3,0.3-0.6,0.5-0.9c0.1-0.2,0.2-0.4,0.4-0.6c0.4-0.5,0.7-1.1,1.2-1.5c0.3-0.2,0.5-0.5,0.6-0.8
		c0.4-0.6,0.9-1.1,1.4-1.6c0.3-0.3,0.6-0.6,0.8-0.9c0.2-0.3,0.4-0.3,0.6,0.1c0.1,0.2,0.1,0.3,0.2,0.5c-0.4,0.3-0.7,0.5-1.1,0.7
		c-0.2,0.2-0.4,0.4-0.6,0.7c-0.4,0.7-0.9,1.4-1.4,2c-0.4,0.5-0.7,1-1.1,1.5c-0.4,0.5-0.9,1-1.3,1.5c-0.5,0.6-0.9,1.2-1.3,1.8
		c-0.7,0.9-1.4,1.7-2.1,2.5c-0.9,1.1-1.9,2.2-2.8,3.3c-0.5,0.6-0.9,1.3-1.3,1.9C20.3,29.7,19.8,30.2,19.4,30.6z M18.7,33.3
		C18.7,33.3,18.6,33.3,18.7,33.3c-0.2-0.1-0.1-0.2,0-0.3C18.8,33.1,18.8,33.2,18.7,33.3z M15.9,30.4C15.9,30.4,15.9,30.4,15.9,30.4
		c0-0.2,0-0.3,0.1-0.4c0.2-0.3,0.4-0.6,0.6-0.9c0.2-0.3,0.4-0.5,0.5-0.8c0.3-0.6,0.9-1.1,1.3-1.7c0.4-0.5,0.8-1.1,1.2-1.6
		c0.1-0.2,0.2-0.3,0.4-0.5c0.4-0.4,0.9-0.8,1.3-1.3c0.5-0.5,0.9-1.1,1.3-1.7c0.2-0.3,0.4-0.6,0.6-1c0.3-0.5,0.6-1,0.9-1.4
		c0.3-0.4,0.6-0.7,0.9-1.1c0.2-0.3,0.4-0.5,0.6-0.8c0.2-0.4,0.5-0.7,0.9-1c0.3-0.3,0.6-0.7,0.9-1c0.4-0.5,0.8-0.9,1.2-1.4
		c0.2-0.2,0.4-0.5,0.7-0.6c0.2-0.2,0.4-0.4,0.4-0.7c0.1-0.5,0.1-0.9-0.4-1.3c0.1-0.2,0.2-0.3,0.3-0.5c0.1-0.2,0.2-0.2,0.4-0.2
		c0.6,0,0.9-0.4,1.1-0.9c0-0.1,0.1-0.2,0.1-0.3c0,0,0,0,0.1,0c0.4,0.3,0.6,0.7,0.8,1.1c-0.1,0.3-0.4,0.5-0.7,0.7
		c-0.3,0.1-0.4,0.5-0.6,0.7c-0.5,0.5-0.9,1.1-1.4,1.6c-0.2,0.3-0.4,0.6-0.7,0.7c-0.5,0.4-0.7,0.9-1,1.4c-0.7,1.4-1.7,2.6-2.7,3.8
		c-0.6,0.7-1.2,1.5-1.8,2.2c-0.5,0.6-1,1.2-1.5,1.8c-0.5,0.5-0.9,1.1-1.3,1.6c-0.5,0.6-1.1,1.2-1.7,1.9c-0.2,0.3-0.4,0.5-0.6,0.8
		c-0.3,0.3-0.6,0.7-0.9,1c-0.3,0.3-0.5,0.6-0.7,0.9C16.5,30.1,16.2,30.3,15.9,30.4z M14.1,27.6c-0.4,0.3-0.7,0.7-0.8,1.2
		c-0.1,0.2-0.2,0.4-0.3,0.6c-0.2,0.3-0.5,0.6-0.8,0.7c-0.6,0.2-0.9,0.7-1.2,1.2c-0.1,0.1,0,0.3-0.1,0.5c-0.1,0-0.2,0.1-0.3,0.1
		c0-0.1-0.1-0.2-0.1-0.3c0.1-0.3,0.2-0.6,0.4-0.8c0.4-0.4,0.8-0.8,1.1-1.2c0.2-0.2,0.4-0.4,0.5-0.6c0.4-0.6,0.8-1.1,1.3-1.7
		c0.3-0.4,0.6-0.8,0.9-1.3c0.3-0.4,0.6-0.8,0.9-1.2c0.2-0.3,0.4-0.5,0.8-0.7c0.4-0.2,0.7-0.5,1.1-0.8c0.6-0.5,1-1,1.4-1.7
		c0-0.1,0.1-0.2,0.2-0.2c0.4-0.4,0.6-1,1-1.5c0.3-0.6,0.6-1.1,1.1-1.6c0.4-0.4,0.7-0.9,1.2-1.4c0,0,0.1-0.1,0.1-0.2
		c0.2-0.4,0.5-0.7,0.8-1.1c0.2-0.3,0.4-0.6,0.7-0.9c0.5-0.6,0.9-1.2,1.4-1.8c0.4-0.5,0.9-1,1.3-1.5c0.5-0.7,1.2-1.2,1.8-1.7
		c0,0,0.1-0.1,0.1-0.1c0.1,0,0.2,0,0.2,0c0.2,0.1,0.1,0.3,0,0.4c-0.2,0.3-0.4,0.6-0.7,0.9c-0.6,0.6-1.3,1.3-2,1.9
		c-0.6,0.5-1,1.1-1.4,1.8c-0.7,1.1-1.4,2.2-2.2,3.2c-0.4,0.5-0.9,1.1-1.3,1.6c-0.4,0.5-0.7,1-1.1,1.5c-0.4,0.5-0.8,1.1-1.2,1.6
		c-0.4,0.5-0.9,1-1.3,1.5c-0.6,0.6-1.2,1.3-1.8,1.9C15.2,26.4,14.7,27,14.1,27.6z M13.7,33.2c-0.1-0.4,0-0.5,0.4-0.7
		c0,0.3,0,0.6,0.1,0.9C14,33.3,13.9,33.2,13.7,33.2z M9.2,30.5c-0.3,0.2-0.4,0.3-0.7,0.1c0,0,0,0,0,0c0.1-0.1,0.2-0.2,0.4-0.2
		c0.3,0,0.5-0.2,0.6-0.5c0.1-0.3,0.4-0.7,0.6-1c0.1-0.2,0.2-0.4,0.3-0.6c0.5-0.9,1.1-1.6,1.8-2.4c0.6-0.7,1.2-1.4,1.8-2.1
		c0.7-0.8,1.3-1.6,1.9-2.4c0.3-0.4,0.7-0.7,1.1-1c0,0.3-0.2,0.5-0.3,0.7c-0.5,0.6-0.9,1.2-1.4,1.9c-1.1,1.5-2.1,3-3.3,4.5
		c-0.5,0.6-1,1.3-1.6,1.8C10.1,29.6,9.7,30.1,9.2,30.5z M7.4,27.1c-0.2,0-0.2-0.2-0.1-0.4c0.1-0.2,0.1-0.3,0.3-0.5
		c0.4-0.4,0.7-1,0.9-1.5c0.4-0.8,0.8-1.5,1.2-2.3c0.3-0.4,0.6-0.8,0.9-1.2c0.5-0.6,1-1.2,1.4-1.9c0.1-0.1,0.1-0.1,0.2-0.2
		c0,0,0,0,0.1,0c0,0.1,0,0.1-0.1,0.2c-1,1.5-1.8,3.1-2.7,4.7c-0.4,0.7-0.9,1.4-1.3,2.1C8.1,26.6,7.9,26.9,7.4,27.1z M5.8,23.7
		c-0.1,0.1-0.2,0.2-0.3,0.3C5.2,23.6,5,23.3,5,22.9c0-0.1,0.1-0.3,0.2-0.4c0.3-0.4,0.6-0.7,0.8-1.1c0.3-0.5,0.7-0.9,1.2-1.2
		c0.1-0.1,0.2-0.2,0.2-0.3c0.3-0.6,0.6-1.2,0.9-1.8c0.2-0.5,0.5-0.9,0.8-1.3c0.3-0.5,0.6-0.9,0.9-1.4c0.3-0.6,0.7-1.1,1-1.6
		c0.6-1,1.3-1.8,2-2.7c0.5-0.7,0.9-1.4,1.4-2.1c0.4-0.6,0.8-1.3,1.2-1.9c0.2-0.3,0.4-0.7,0.8-0.6c0.2-0.4,0.4-0.7,0.6-1
		c0.1-0.2,0.4-0.4,0.7-0.4c0.1,0,0.2-0.1,0.3-0.2C18,4.6,18.1,4.2,18,3.8c0-0.1-0.1-0.2-0.1-0.3c0.2-0.3,0.5-0.2,0.7-0.2
		c0.6,0,1.3,0,2-0.1c-0.1,0.7-0.2,1.3,0.5,1.7c-0.2,0.2-0.3,0.4-0.5,0.7c0-0.3-0.1-0.5-0.1-0.7c0-0.2-0.2-0.5-0.3-0.6
		C19.8,4,19.6,4,19.4,4.4c-0.3,0.5-0.5,0.9-0.8,1.4c-0.8,1.3-1.9,2.4-2.9,3.5c-1.2,1.2-2.3,2.6-3,4.2c-0.4,1-0.9,1.9-1.5,2.7
		c-0.4,0.5-0.8,1-1.1,1.5c-0.5,0.9-1,1.7-1.5,2.6C7.7,21.5,6.9,22.7,5.8,23.7z M6.7,11.5c0.1-0.1,0.2-0.2,0.4-0.3
		c0,0.3-0.3,0.7-0.6,1C6.4,11.9,6.5,11.7,6.7,11.5z M7.9,13.2c-0.3,0.9-0.7,1.7-1.3,2.4c0-0.4,0.1-0.7,0.3-1C7,14.4,7.1,14.2,7.3,14
		C7.5,13.7,7.7,13.4,7.9,13.2z M9.8,9.5c0,0,0.1-0.1,0.1-0.2c0.2-0.6,0.7-0.9,1.2-1.3c0.2-0.1,0.3-0.3,0.3-0.5
		c0.1-0.3,0-0.5-0.4-0.8c0-0.1,0.1-0.1,0.1-0.1c0.4-0.2,0.7-0.6,1-0.8c0.4-0.3,0.8-0.6,1.2-0.8c0.7-0.3,1.5-0.5,2.2-0.9
		C15.6,4,15.7,4,15.8,4c-0.1,0.4-0.5,0.7-0.7,1c-0.2,0.3-0.4,0.6-0.6,0.9c-0.2,0.3-0.4,0.6-0.7,1c-0.1-0.1-0.2-0.2-0.3-0.3
		c-0.1-0.1-0.1-0.2-0.2-0.2c-0.4-0.3-0.6-0.3-0.8,0.2c-0.2,0.4-0.3,0.7-0.6,1c-1,1.2-1.9,2.4-2.7,3.7c0,0.1-0.1,0.1-0.2,0.2
		C9.1,10.7,9.3,10,9.8,9.5z M19.1,7.1c0.3-0.6,0.7-1.1,1.2-1.5c0,0,0.1,0.1,0.1,0.1C20.1,6.2,19.6,6.7,19.1,7.1
		C19.2,7.2,19.2,7.1,19.1,7.1z M23.3,4.8c0-0.1-0.1-0.2-0.1-0.2c0-0.3-0.2-0.5-0.4-0.6c-0.2-0.1-0.4-0.2-0.6-0.1
		C22,3.9,21.9,4,21.7,4.1c-0.1-0.2-0.2-0.4-0.3-0.7c0.3,0.1,0.5,0,0.7,0.2c0.1,0.1,0.2,0.1,0.3,0c0.4-0.1,1,0.1,1.4,0.4
		c0.2,0.2,0.5,0.4,0.7,0.6c0,0.3-0.2,0.5-0.4,0.6c-1.1,1.1-2.1,2.1-3.2,3.2c-0.3,0.4-0.6,0.8-0.9,1.2c-0.7,0.9-1.4,1.8-2.2,2.7
		c-0.5,0.6-0.9,1.2-1.5,1.8c-0.8,0.9-1.5,1.7-2.3,2.6c0.6-1.2,1.3-2.4,2.2-3.5c0.7-0.9,1.3-1.8,2-2.6c0.7-0.9,1.5-1.8,2.3-2.7
		c0.3-0.4,0.7-0.8,1-1.2c0.4-0.6,1-0.8,1.7-1C23.4,5.4,23.6,5.1,23.3,4.8z M24.9,6.7c0.1,0,0.2,0,0.3,0.1c0.2,0.1,0.3,0.2,0.2,0.5
		c0,0.1-0.1,0.3-0.2,0.4C24.6,8.4,24,9.2,23.4,10c-0.5,0.7-1,1.4-1.5,2.2c-0.9,1.3-1.9,2.5-3.1,3.6c-0.7,0.6-1.3,1.4-1.9,2.1
		c-0.2,0.3-0.5,0.6-0.7,0.9c-0.7,0.8-1.4,1.6-2.1,2.4c-0.7,0.8-1.3,1.7-2,2.5c-0.4,0.5-0.8,1-1.2,1.4c0.1-0.3,0.2-0.5,0.4-0.8
		c0.3-0.5,0.6-0.9,0.8-1.4c0.6-1.1,1.3-2.2,2-3.2c0.8-1,1.5-2.1,2.4-3c1.3-1.4,2.4-2.9,3.6-4.4c0.6-0.8,1.2-1.6,1.9-2.4
		c0.3-0.4,0.7-0.8,1.1-1.2c0.2-0.2,0.4-0.5,0.6-0.7c0.3-0.3,0.6-0.6,0.9-0.8C24.7,7,24.8,6.8,24.9,6.7z M27,7.7
		c0.1-0.2,0.2-0.5,0.3-0.7c0.4,0.3,0.3,0.7,0,0.9c-0.1,0-0.2,0-0.2,0C27,7.8,27,7.7,27,7.7z M29.4,7.3c0.1,0.1,0.3,0.2,0.4,0.3
		C30,7.8,29.9,7.9,29.8,8c-0.1,0.1-0.2,0-0.2-0.1C29.5,7.7,29.4,7.5,29.4,7.3C29.4,7.4,29.4,7.3,29.4,7.3z M36.7,16.5
		C36.7,16.5,36.7,16.5,36.7,16.5c0-0.2,0-0.4-0.1-0.6c-0.1-0.7-0.3-1.5-0.5-2.2c-0.3-1.1-0.6-2.2-1.3-3.2c-0.4-0.7-0.8-1.3-1.4-1.8
		C33.2,8.5,33,8.3,32.9,8c-0.1-0.2-0.3-0.4-0.4-0.6c-0.4-0.4-0.7-0.8-1.1-1.1c-0.3-0.2-0.5-0.5-0.8-0.7c-0.4-0.3-0.7-0.6-1.1-0.9
		c-0.1-0.1-0.2-0.1-0.3-0.2c-0.3-0.3-0.6-0.5-1-0.7c-0.6-0.3-1.2-0.6-1.7-1.1c-0.5-0.5-1.1-0.7-1.7-0.9c-0.3-0.1-0.6-0.1-0.9-0.2
		c-0.7-0.2-1.4-0.5-2.2-0.4c-0.1,0-0.1,0-0.2,0c-0.3,0-0.6-0.1-0.9-0.1c-0.5,0-1.1,0-1.6,0.1c-0.3,0-0.6,0-0.8,0.1
		c-0.8,0.4-1.7,0.5-2.6,0.7c-0.4,0.1-0.8,0.3-1.3,0.5c-0.5,0.2-0.9,0.5-1.4,0.7c-0.2,0.1-0.3,0.2-0.5,0.3C12,3.8,11.5,4.1,11,4.3
		c-0.5,0.2-0.8,0.5-1.1,0.9C9.6,5.5,9.2,5.9,8.8,6.2c-0.4,0.3-0.7,0.6-1,0.9C7.4,7.4,7.2,7.7,6.8,7.9c-0.5,0.2-0.7,0.7-1.1,1
		C5.4,9.1,5.2,9.4,4.9,9.7c-0.2,0.3-0.5,0.5-0.6,0.9c-0.1,0.2-0.1,0.4-0.2,0.6c-0.4,0.6-0.7,1.2-0.8,1.9c0,0.1,0,0.1-0.1,0.1
		c-0.2,0.1-0.2,0.3-0.2,0.5c0,0.3-0.1,0.5-0.2,0.8c-0.1,0.6-0.3,1.2-0.4,1.9c-0.1,0.3,0,0.6-0.1,0.9c-0.2,0.7-0.4,1.4-0.4,2.1
		c0,0.5,0,0.9,0.1,1.4c0,0.3,0,0.6,0.1,0.8c0,0.3,0,0.6,0.1,0.9c0.2,0.6,0.1,1.3,0.4,1.8c0,0,0,0.1,0,0.2c0.1,0.3,0.1,0.7,0.2,1
		C2.9,26,3,26.4,3.3,26.7c0,0,0,0.2,0,0.2c0,0.1,0.1,0.3,0.1,0.4c0,0.1,0.1,0.2,0.1,0.3c0,0.3,0.1,0.4,0.3,0.6
		c0.3,0.3,0.5,0.8,0.8,1.1c0.2,0.3,0.4,0.6,0.6,0.9c0.2,0.3,0.3,0.6,0.5,0.9c0.2,0.3,0.3,0.6,0.5,1c0.1,0.1,0.2,0.2,0.3,0.3
		c0.1,0.1,0.2,0.1,0.3,0.2c0.4,0.3,0.9,0.7,1.3,1.1C8,33.5,8,33.6,8.1,33.6c0.5,0.2,0.9,0.3,1.4,0.5c0.1,0,0.3,0,0.4,0.1
		c0.8,0.4,1.6,0.8,2.5,0.9c0.4,0.1,0.8,0.2,1.2,0.2c0.6,0,1.3,0.1,1.9,0.3c0.8,0.2,1.6,0.3,2.3,0.2c0.5,0,1-0.1,1.5-0.2
		c0.3,0,0.6,0,0.9-0.1c0.5-0.1,1-0.3,1.5-0.5c0.2-0.1,0.4-0.1,0.6-0.1c0,0,0.1,0,0.2,0c0.6-0.2,1.1-0.4,1.6-0.8
		c0.1-0.1,0.2-0.1,0.3-0.1c0.7-0.2,1.3-0.6,1.9-1c0.5-0.3,0.9-0.7,1.4-1c0.5-0.3,1-0.7,1.5-1c0,0,0,0,0.1-0.1
		c0.2-0.2,0.5-0.5,0.7-0.6c0.5-0.3,0.8-0.7,1.1-1.2c0.1-0.2,0.3-0.3,0.4-0.5c0.4-0.4,0.8-0.9,1.2-1.3c0.3-0.3,0.6-0.6,0.9-0.9
		c0.1-0.2,0.3-0.3,0.4-0.5c0.2-0.5,0.4-1,0.5-1.6c0.1-0.4,0.3-0.8,0.6-1.1c0.3-0.4,0.6-0.7,0.7-1.2c0-0.1,0.1-0.3,0.2-0.4
		c0.2-0.4,0.4-0.8,0.4-1.2c0-0.2,0-0.5,0-0.7c0.1-0.5,0.2-1,0.2-1.5C36.7,17.9,36.7,17.2,36.7,16.5z"/>
</g>
</svg>
